<mxfile host="app.diagrams.net" modified="2024-04-30T12:23:10.782Z" agent="Mozilla/5.0 (Windows NT 10.0; Win64; x64) AppleWebKit/537.36 (KHTML, like Gecko) Chrome/124.0.0.0 Safari/537.36" version="24.3.1" etag="Xa1evKvFuq9tRBE3cmDj" type="github">
  <diagram name="Page-1" id="tOFtILj678QEa_eZYNcm">
    <mxGraphModel>
      <root>
        <mxCell id="0" />
        <mxCell id="1" parent="0" />
      </root>
    </mxGraphModel>
  </diagram>
</mxfile>
